%TF.GenerationSoftware,KiCad,Pcbnew,(5.1.10)-1*%
%TF.CreationDate,2021-07-14T02:51:18+08:00*%
%TF.ProjectId,20210714,32303231-3037-4313-942e-6b696361645f,rev?*%
%TF.SameCoordinates,Original*%
%TF.FileFunction,Copper,L1,Top*%
%TF.FilePolarity,Positive*%
%FSLAX46Y46*%
G04 Gerber Fmt 4.6, Leading zero omitted, Abs format (unit mm)*
G04 Created by KiCad (PCBNEW (5.1.10)-1) date 2021-07-14 02:51:18*
%MOMM*%
%LPD*%
G01*
G04 APERTURE LIST*
%TA.AperFunction,ComponentPad*%
%ADD10R,1.800000X1.800000*%
%TD*%
%TA.AperFunction,ComponentPad*%
%ADD11C,1.800000*%
%TD*%
%TA.AperFunction,ComponentPad*%
%ADD12C,10.160000*%
%TD*%
%TA.AperFunction,ComponentPad*%
%ADD13O,1.600000X1.600000*%
%TD*%
%TA.AperFunction,ComponentPad*%
%ADD14C,1.600000*%
%TD*%
%TA.AperFunction,ComponentPad*%
%ADD15R,1.600000X1.600000*%
%TD*%
%TA.AperFunction,Conductor*%
%ADD16C,0.400000*%
%TD*%
G04 APERTURE END LIST*
D10*
%TO.P,D1,1*%
%TO.N,Net-(D1-Pad1)*%
X101600000Y-72390000D03*
D11*
%TO.P,D1,2*%
%TO.N,Net-(D1-Pad2)*%
X104140000Y-72390000D03*
%TD*%
D12*
%TO.P,J1,1*%
%TO.N,VCC*%
X103120000Y-97790000D03*
%TO.P,J1,3*%
%TO.N,GND*%
X133090000Y-97790000D03*
%TO.P,J1,2*%
%TO.N,Net-(J1-Pad2)*%
X118110000Y-97790000D03*
%TD*%
D13*
%TO.P,R1,2*%
%TO.N,/INPUT*%
X134620000Y-69850000D03*
D14*
%TO.P,R1,1*%
%TO.N,Net-(J1-Pad2)*%
X134620000Y-72390000D03*
%TD*%
%TO.P,R2,1*%
%TO.N,Net-(D1-Pad2)*%
X104140000Y-82550000D03*
D13*
%TO.P,R2,2*%
%TO.N,VCC*%
X104140000Y-85090000D03*
%TD*%
D15*
%TO.P,U1,1*%
%TO.N,VCC*%
X114300000Y-77470000D03*
D13*
%TO.P,U1,5*%
%TO.N,Net-(U1-Pad5)*%
X121920000Y-69850000D03*
%TO.P,U1,2*%
%TO.N,Net-(U1-Pad2)*%
X116840000Y-77470000D03*
%TO.P,U1,6*%
%TO.N,/INPUT*%
X119380000Y-69850000D03*
%TO.P,U1,3*%
%TO.N,Net-(U1-Pad3)*%
X119380000Y-77470000D03*
%TO.P,U1,7*%
%TO.N,Net-(D1-Pad1)*%
X116840000Y-69850000D03*
%TO.P,U1,4*%
%TO.N,Net-(U1-Pad4)*%
X121920000Y-77470000D03*
%TO.P,U1,8*%
%TO.N,GND*%
X114300000Y-69850000D03*
%TD*%
D16*
%TO.N,Net-(D1-Pad1)*%
X101600000Y-69850000D02*
X101600000Y-72390000D01*
X102870000Y-68580000D02*
X101600000Y-69850000D01*
X109220000Y-72390000D02*
X105410000Y-68580000D01*
X105410000Y-68580000D02*
X102870000Y-68580000D01*
X115570000Y-72390000D02*
X109220000Y-72390000D01*
X116840000Y-71120000D02*
X115570000Y-72390000D01*
X116840000Y-69850000D02*
X116840000Y-71120000D01*
%TO.N,Net-(D1-Pad2)*%
X104140000Y-72390000D02*
X104140000Y-82550000D01*
%TO.N,VCC*%
X103120000Y-86110000D02*
X104140000Y-85090000D01*
X103120000Y-97790000D02*
X103120000Y-86110000D01*
X106680000Y-85090000D02*
X114300000Y-77470000D01*
X104140000Y-85090000D02*
X106680000Y-85090000D01*
%TO.N,GND*%
X137160000Y-66040000D02*
X137160000Y-93720000D01*
X137160000Y-93720000D02*
X133090000Y-97790000D01*
X135890000Y-64770000D02*
X137160000Y-66040000D01*
X115570000Y-64770000D02*
X135890000Y-64770000D01*
X114300000Y-66040000D02*
X115570000Y-64770000D01*
X114300000Y-69850000D02*
X114300000Y-66040000D01*
%TO.N,Net-(J1-Pad2)*%
X118110000Y-88900000D02*
X134620000Y-72390000D01*
X118110000Y-97790000D02*
X118110000Y-88900000D01*
%TO.N,/INPUT*%
X119380000Y-67310000D02*
X119380000Y-69850000D01*
X120650000Y-66040000D02*
X119380000Y-67310000D01*
X130810000Y-66040000D02*
X120650000Y-66040000D01*
X134620000Y-69850000D02*
X130810000Y-66040000D01*
%TD*%
M02*
