%TF.GenerationSoftware,KiCad,Pcbnew,(5.1.10)-1*%
%TF.CreationDate,2021-07-14T02:51:18+08:00*%
%TF.ProjectId,20210714,32303231-3037-4313-942e-6b696361645f,rev?*%
%TF.SameCoordinates,Original*%
%TF.FileFunction,Copper,L2,Bot*%
%TF.FilePolarity,Positive*%
%FSLAX46Y46*%
G04 Gerber Fmt 4.6, Leading zero omitted, Abs format (unit mm)*
G04 Created by KiCad (PCBNEW (5.1.10)-1) date 2021-07-14 02:51:18*
%MOMM*%
%LPD*%
G01*
G04 APERTURE LIST*
%TA.AperFunction,ComponentPad*%
%ADD10R,1.800000X1.800000*%
%TD*%
%TA.AperFunction,ComponentPad*%
%ADD11C,1.800000*%
%TD*%
%TA.AperFunction,ComponentPad*%
%ADD12C,10.160000*%
%TD*%
%TA.AperFunction,ComponentPad*%
%ADD13O,1.600000X1.600000*%
%TD*%
%TA.AperFunction,ComponentPad*%
%ADD14C,1.600000*%
%TD*%
%TA.AperFunction,ComponentPad*%
%ADD15R,1.600000X1.600000*%
%TD*%
%TA.AperFunction,Conductor*%
%ADD16C,0.254000*%
%TD*%
%TA.AperFunction,Conductor*%
%ADD17C,0.100000*%
%TD*%
G04 APERTURE END LIST*
D10*
%TO.P,D1,1*%
%TO.N,Net-(D1-Pad1)*%
X101600000Y-72390000D03*
D11*
%TO.P,D1,2*%
%TO.N,Net-(D1-Pad2)*%
X104140000Y-72390000D03*
%TD*%
D12*
%TO.P,J1,1*%
%TO.N,VCC*%
X103120000Y-97790000D03*
%TO.P,J1,3*%
%TO.N,GND*%
X133090000Y-97790000D03*
%TO.P,J1,2*%
%TO.N,Net-(J1-Pad2)*%
X118110000Y-97790000D03*
%TD*%
D13*
%TO.P,R1,2*%
%TO.N,/INPUT*%
X134620000Y-69850000D03*
D14*
%TO.P,R1,1*%
%TO.N,Net-(J1-Pad2)*%
X134620000Y-72390000D03*
%TD*%
%TO.P,R2,1*%
%TO.N,Net-(D1-Pad2)*%
X104140000Y-82550000D03*
D13*
%TO.P,R2,2*%
%TO.N,VCC*%
X104140000Y-85090000D03*
%TD*%
D15*
%TO.P,U1,1*%
%TO.N,VCC*%
X114300000Y-77470000D03*
D13*
%TO.P,U1,5*%
%TO.N,Net-(U1-Pad5)*%
X121920000Y-69850000D03*
%TO.P,U1,2*%
%TO.N,Net-(U1-Pad2)*%
X116840000Y-77470000D03*
%TO.P,U1,6*%
%TO.N,/INPUT*%
X119380000Y-69850000D03*
%TO.P,U1,3*%
%TO.N,Net-(U1-Pad3)*%
X119380000Y-77470000D03*
%TO.P,U1,7*%
%TO.N,Net-(D1-Pad1)*%
X116840000Y-69850000D03*
%TO.P,U1,4*%
%TO.N,Net-(U1-Pad4)*%
X121920000Y-77470000D03*
%TO.P,U1,8*%
%TO.N,GND*%
X114300000Y-69850000D03*
%TD*%
D16*
%TO.N,GND*%
X140310001Y-108560000D02*
X95910000Y-108560000D01*
X95910000Y-97227122D01*
X97405000Y-97227122D01*
X97405000Y-98352878D01*
X97624625Y-99457004D01*
X98055433Y-100497067D01*
X98680870Y-101433100D01*
X99476900Y-102229130D01*
X100412933Y-102854567D01*
X101452996Y-103285375D01*
X102557122Y-103505000D01*
X103682878Y-103505000D01*
X104787004Y-103285375D01*
X105827067Y-102854567D01*
X106763100Y-102229130D01*
X107559130Y-101433100D01*
X108184567Y-100497067D01*
X108615375Y-99457004D01*
X108835000Y-98352878D01*
X108835000Y-97227122D01*
X112395000Y-97227122D01*
X112395000Y-98352878D01*
X112614625Y-99457004D01*
X113045433Y-100497067D01*
X113670870Y-101433100D01*
X114466900Y-102229130D01*
X115402933Y-102854567D01*
X116442996Y-103285375D01*
X117547122Y-103505000D01*
X118672878Y-103505000D01*
X119777004Y-103285375D01*
X120817067Y-102854567D01*
X121753100Y-102229130D01*
X122155034Y-101827196D01*
X129232409Y-101827196D01*
X129818124Y-102509416D01*
X130801704Y-103057045D01*
X131873223Y-103402265D01*
X132991501Y-103531808D01*
X134113565Y-103440697D01*
X135196294Y-103132433D01*
X136198079Y-102618863D01*
X136361876Y-102509416D01*
X136947591Y-101827196D01*
X133090000Y-97969605D01*
X129232409Y-101827196D01*
X122155034Y-101827196D01*
X122549130Y-101433100D01*
X123174567Y-100497067D01*
X123605375Y-99457004D01*
X123825000Y-98352878D01*
X123825000Y-97691501D01*
X127348192Y-97691501D01*
X127439303Y-98813565D01*
X127747567Y-99896294D01*
X128261137Y-100898079D01*
X128370584Y-101061876D01*
X129052804Y-101647591D01*
X132910395Y-97790000D01*
X133269605Y-97790000D01*
X137127196Y-101647591D01*
X137809416Y-101061876D01*
X138357045Y-100078296D01*
X138702265Y-99006777D01*
X138831808Y-97888499D01*
X138740697Y-96766435D01*
X138432433Y-95683706D01*
X137918863Y-94681921D01*
X137809416Y-94518124D01*
X137127196Y-93932409D01*
X133269605Y-97790000D01*
X132910395Y-97790000D01*
X129052804Y-93932409D01*
X128370584Y-94518124D01*
X127822955Y-95501704D01*
X127477735Y-96573223D01*
X127348192Y-97691501D01*
X123825000Y-97691501D01*
X123825000Y-97227122D01*
X123605375Y-96122996D01*
X123174567Y-95082933D01*
X122549130Y-94146900D01*
X122155034Y-93752804D01*
X129232409Y-93752804D01*
X133090000Y-97610395D01*
X136947591Y-93752804D01*
X136361876Y-93070584D01*
X135378296Y-92522955D01*
X134306777Y-92177735D01*
X133188499Y-92048192D01*
X132066435Y-92139303D01*
X130983706Y-92447567D01*
X129981921Y-92961137D01*
X129818124Y-93070584D01*
X129232409Y-93752804D01*
X122155034Y-93752804D01*
X121753100Y-93350870D01*
X120817067Y-92725433D01*
X119777004Y-92294625D01*
X118672878Y-92075000D01*
X117547122Y-92075000D01*
X116442996Y-92294625D01*
X115402933Y-92725433D01*
X114466900Y-93350870D01*
X113670870Y-94146900D01*
X113045433Y-95082933D01*
X112614625Y-96122996D01*
X112395000Y-97227122D01*
X108835000Y-97227122D01*
X108615375Y-96122996D01*
X108184567Y-95082933D01*
X107559130Y-94146900D01*
X106763100Y-93350870D01*
X105827067Y-92725433D01*
X104787004Y-92294625D01*
X103682878Y-92075000D01*
X102557122Y-92075000D01*
X101452996Y-92294625D01*
X100412933Y-92725433D01*
X99476900Y-93350870D01*
X98680870Y-94146900D01*
X98055433Y-95082933D01*
X97624625Y-96122996D01*
X97405000Y-97227122D01*
X95910000Y-97227122D01*
X95910000Y-82408665D01*
X102705000Y-82408665D01*
X102705000Y-82691335D01*
X102760147Y-82968574D01*
X102868320Y-83229727D01*
X103025363Y-83464759D01*
X103225241Y-83664637D01*
X103457759Y-83820000D01*
X103225241Y-83975363D01*
X103025363Y-84175241D01*
X102868320Y-84410273D01*
X102760147Y-84671426D01*
X102705000Y-84948665D01*
X102705000Y-85231335D01*
X102760147Y-85508574D01*
X102868320Y-85769727D01*
X103025363Y-86004759D01*
X103225241Y-86204637D01*
X103460273Y-86361680D01*
X103721426Y-86469853D01*
X103998665Y-86525000D01*
X104281335Y-86525000D01*
X104558574Y-86469853D01*
X104819727Y-86361680D01*
X105054759Y-86204637D01*
X105254637Y-86004759D01*
X105411680Y-85769727D01*
X105519853Y-85508574D01*
X105575000Y-85231335D01*
X105575000Y-84948665D01*
X105519853Y-84671426D01*
X105411680Y-84410273D01*
X105254637Y-84175241D01*
X105054759Y-83975363D01*
X104822241Y-83820000D01*
X105054759Y-83664637D01*
X105254637Y-83464759D01*
X105411680Y-83229727D01*
X105519853Y-82968574D01*
X105575000Y-82691335D01*
X105575000Y-82408665D01*
X105519853Y-82131426D01*
X105411680Y-81870273D01*
X105254637Y-81635241D01*
X105054759Y-81435363D01*
X104819727Y-81278320D01*
X104558574Y-81170147D01*
X104281335Y-81115000D01*
X103998665Y-81115000D01*
X103721426Y-81170147D01*
X103460273Y-81278320D01*
X103225241Y-81435363D01*
X103025363Y-81635241D01*
X102868320Y-81870273D01*
X102760147Y-82131426D01*
X102705000Y-82408665D01*
X95910000Y-82408665D01*
X95910000Y-76670000D01*
X112861928Y-76670000D01*
X112861928Y-78270000D01*
X112874188Y-78394482D01*
X112910498Y-78514180D01*
X112969463Y-78624494D01*
X113048815Y-78721185D01*
X113145506Y-78800537D01*
X113255820Y-78859502D01*
X113375518Y-78895812D01*
X113500000Y-78908072D01*
X115100000Y-78908072D01*
X115224482Y-78895812D01*
X115344180Y-78859502D01*
X115454494Y-78800537D01*
X115551185Y-78721185D01*
X115630537Y-78624494D01*
X115689502Y-78514180D01*
X115725812Y-78394482D01*
X115726643Y-78386039D01*
X115925241Y-78584637D01*
X116160273Y-78741680D01*
X116421426Y-78849853D01*
X116698665Y-78905000D01*
X116981335Y-78905000D01*
X117258574Y-78849853D01*
X117519727Y-78741680D01*
X117754759Y-78584637D01*
X117954637Y-78384759D01*
X118110000Y-78152241D01*
X118265363Y-78384759D01*
X118465241Y-78584637D01*
X118700273Y-78741680D01*
X118961426Y-78849853D01*
X119238665Y-78905000D01*
X119521335Y-78905000D01*
X119798574Y-78849853D01*
X120059727Y-78741680D01*
X120294759Y-78584637D01*
X120494637Y-78384759D01*
X120650000Y-78152241D01*
X120805363Y-78384759D01*
X121005241Y-78584637D01*
X121240273Y-78741680D01*
X121501426Y-78849853D01*
X121778665Y-78905000D01*
X122061335Y-78905000D01*
X122338574Y-78849853D01*
X122599727Y-78741680D01*
X122834759Y-78584637D01*
X123034637Y-78384759D01*
X123191680Y-78149727D01*
X123299853Y-77888574D01*
X123355000Y-77611335D01*
X123355000Y-77328665D01*
X123299853Y-77051426D01*
X123191680Y-76790273D01*
X123034637Y-76555241D01*
X122834759Y-76355363D01*
X122599727Y-76198320D01*
X122338574Y-76090147D01*
X122061335Y-76035000D01*
X121778665Y-76035000D01*
X121501426Y-76090147D01*
X121240273Y-76198320D01*
X121005241Y-76355363D01*
X120805363Y-76555241D01*
X120650000Y-76787759D01*
X120494637Y-76555241D01*
X120294759Y-76355363D01*
X120059727Y-76198320D01*
X119798574Y-76090147D01*
X119521335Y-76035000D01*
X119238665Y-76035000D01*
X118961426Y-76090147D01*
X118700273Y-76198320D01*
X118465241Y-76355363D01*
X118265363Y-76555241D01*
X118110000Y-76787759D01*
X117954637Y-76555241D01*
X117754759Y-76355363D01*
X117519727Y-76198320D01*
X117258574Y-76090147D01*
X116981335Y-76035000D01*
X116698665Y-76035000D01*
X116421426Y-76090147D01*
X116160273Y-76198320D01*
X115925241Y-76355363D01*
X115726643Y-76553961D01*
X115725812Y-76545518D01*
X115689502Y-76425820D01*
X115630537Y-76315506D01*
X115551185Y-76218815D01*
X115454494Y-76139463D01*
X115344180Y-76080498D01*
X115224482Y-76044188D01*
X115100000Y-76031928D01*
X113500000Y-76031928D01*
X113375518Y-76044188D01*
X113255820Y-76080498D01*
X113145506Y-76139463D01*
X113048815Y-76218815D01*
X112969463Y-76315506D01*
X112910498Y-76425820D01*
X112874188Y-76545518D01*
X112861928Y-76670000D01*
X95910000Y-76670000D01*
X95910000Y-71490000D01*
X100061928Y-71490000D01*
X100061928Y-73290000D01*
X100074188Y-73414482D01*
X100110498Y-73534180D01*
X100169463Y-73644494D01*
X100248815Y-73741185D01*
X100345506Y-73820537D01*
X100455820Y-73879502D01*
X100575518Y-73915812D01*
X100700000Y-73928072D01*
X102500000Y-73928072D01*
X102624482Y-73915812D01*
X102744180Y-73879502D01*
X102854494Y-73820537D01*
X102951185Y-73741185D01*
X103030537Y-73644494D01*
X103089502Y-73534180D01*
X103095056Y-73515873D01*
X103161495Y-73582312D01*
X103412905Y-73750299D01*
X103692257Y-73866011D01*
X103988816Y-73925000D01*
X104291184Y-73925000D01*
X104587743Y-73866011D01*
X104867095Y-73750299D01*
X105118505Y-73582312D01*
X105332312Y-73368505D01*
X105500299Y-73117095D01*
X105616011Y-72837743D01*
X105675000Y-72541184D01*
X105675000Y-72238816D01*
X105616011Y-71942257D01*
X105500299Y-71662905D01*
X105332312Y-71411495D01*
X105118505Y-71197688D01*
X104867095Y-71029701D01*
X104587743Y-70913989D01*
X104291184Y-70855000D01*
X103988816Y-70855000D01*
X103692257Y-70913989D01*
X103412905Y-71029701D01*
X103161495Y-71197688D01*
X103095056Y-71264127D01*
X103089502Y-71245820D01*
X103030537Y-71135506D01*
X102951185Y-71038815D01*
X102854494Y-70959463D01*
X102744180Y-70900498D01*
X102624482Y-70864188D01*
X102500000Y-70851928D01*
X100700000Y-70851928D01*
X100575518Y-70864188D01*
X100455820Y-70900498D01*
X100345506Y-70959463D01*
X100248815Y-71038815D01*
X100169463Y-71135506D01*
X100110498Y-71245820D01*
X100074188Y-71365518D01*
X100061928Y-71490000D01*
X95910000Y-71490000D01*
X95910000Y-70199040D01*
X112908091Y-70199040D01*
X113002930Y-70463881D01*
X113147615Y-70705131D01*
X113336586Y-70913519D01*
X113562580Y-71081037D01*
X113816913Y-71201246D01*
X113950961Y-71241904D01*
X114173000Y-71119915D01*
X114173000Y-69977000D01*
X113029376Y-69977000D01*
X112908091Y-70199040D01*
X95910000Y-70199040D01*
X95910000Y-69500960D01*
X112908091Y-69500960D01*
X113029376Y-69723000D01*
X114173000Y-69723000D01*
X114173000Y-68580085D01*
X114427000Y-68580085D01*
X114427000Y-69723000D01*
X114447000Y-69723000D01*
X114447000Y-69977000D01*
X114427000Y-69977000D01*
X114427000Y-71119915D01*
X114649039Y-71241904D01*
X114783087Y-71201246D01*
X115037420Y-71081037D01*
X115263414Y-70913519D01*
X115452385Y-70705131D01*
X115563933Y-70519135D01*
X115568320Y-70529727D01*
X115725363Y-70764759D01*
X115925241Y-70964637D01*
X116160273Y-71121680D01*
X116421426Y-71229853D01*
X116698665Y-71285000D01*
X116981335Y-71285000D01*
X117258574Y-71229853D01*
X117519727Y-71121680D01*
X117754759Y-70964637D01*
X117954637Y-70764759D01*
X118110000Y-70532241D01*
X118265363Y-70764759D01*
X118465241Y-70964637D01*
X118700273Y-71121680D01*
X118961426Y-71229853D01*
X119238665Y-71285000D01*
X119521335Y-71285000D01*
X119798574Y-71229853D01*
X120059727Y-71121680D01*
X120294759Y-70964637D01*
X120494637Y-70764759D01*
X120650000Y-70532241D01*
X120805363Y-70764759D01*
X121005241Y-70964637D01*
X121240273Y-71121680D01*
X121501426Y-71229853D01*
X121778665Y-71285000D01*
X122061335Y-71285000D01*
X122338574Y-71229853D01*
X122599727Y-71121680D01*
X122834759Y-70964637D01*
X123034637Y-70764759D01*
X123191680Y-70529727D01*
X123299853Y-70268574D01*
X123355000Y-69991335D01*
X123355000Y-69708665D01*
X133185000Y-69708665D01*
X133185000Y-69991335D01*
X133240147Y-70268574D01*
X133348320Y-70529727D01*
X133505363Y-70764759D01*
X133705241Y-70964637D01*
X133937759Y-71120000D01*
X133705241Y-71275363D01*
X133505363Y-71475241D01*
X133348320Y-71710273D01*
X133240147Y-71971426D01*
X133185000Y-72248665D01*
X133185000Y-72531335D01*
X133240147Y-72808574D01*
X133348320Y-73069727D01*
X133505363Y-73304759D01*
X133705241Y-73504637D01*
X133940273Y-73661680D01*
X134201426Y-73769853D01*
X134478665Y-73825000D01*
X134761335Y-73825000D01*
X135038574Y-73769853D01*
X135299727Y-73661680D01*
X135534759Y-73504637D01*
X135734637Y-73304759D01*
X135891680Y-73069727D01*
X135999853Y-72808574D01*
X136055000Y-72531335D01*
X136055000Y-72248665D01*
X135999853Y-71971426D01*
X135891680Y-71710273D01*
X135734637Y-71475241D01*
X135534759Y-71275363D01*
X135302241Y-71120000D01*
X135534759Y-70964637D01*
X135734637Y-70764759D01*
X135891680Y-70529727D01*
X135999853Y-70268574D01*
X136055000Y-69991335D01*
X136055000Y-69708665D01*
X135999853Y-69431426D01*
X135891680Y-69170273D01*
X135734637Y-68935241D01*
X135534759Y-68735363D01*
X135299727Y-68578320D01*
X135038574Y-68470147D01*
X134761335Y-68415000D01*
X134478665Y-68415000D01*
X134201426Y-68470147D01*
X133940273Y-68578320D01*
X133705241Y-68735363D01*
X133505363Y-68935241D01*
X133348320Y-69170273D01*
X133240147Y-69431426D01*
X133185000Y-69708665D01*
X123355000Y-69708665D01*
X123299853Y-69431426D01*
X123191680Y-69170273D01*
X123034637Y-68935241D01*
X122834759Y-68735363D01*
X122599727Y-68578320D01*
X122338574Y-68470147D01*
X122061335Y-68415000D01*
X121778665Y-68415000D01*
X121501426Y-68470147D01*
X121240273Y-68578320D01*
X121005241Y-68735363D01*
X120805363Y-68935241D01*
X120650000Y-69167759D01*
X120494637Y-68935241D01*
X120294759Y-68735363D01*
X120059727Y-68578320D01*
X119798574Y-68470147D01*
X119521335Y-68415000D01*
X119238665Y-68415000D01*
X118961426Y-68470147D01*
X118700273Y-68578320D01*
X118465241Y-68735363D01*
X118265363Y-68935241D01*
X118110000Y-69167759D01*
X117954637Y-68935241D01*
X117754759Y-68735363D01*
X117519727Y-68578320D01*
X117258574Y-68470147D01*
X116981335Y-68415000D01*
X116698665Y-68415000D01*
X116421426Y-68470147D01*
X116160273Y-68578320D01*
X115925241Y-68735363D01*
X115725363Y-68935241D01*
X115568320Y-69170273D01*
X115563933Y-69180865D01*
X115452385Y-68994869D01*
X115263414Y-68786481D01*
X115037420Y-68618963D01*
X114783087Y-68498754D01*
X114649039Y-68458096D01*
X114427000Y-68580085D01*
X114173000Y-68580085D01*
X113950961Y-68458096D01*
X113816913Y-68498754D01*
X113562580Y-68618963D01*
X113336586Y-68786481D01*
X113147615Y-68994869D01*
X113002930Y-69236119D01*
X112908091Y-69500960D01*
X95910000Y-69500960D01*
X95910000Y-64160000D01*
X140310000Y-64160000D01*
X140310001Y-108560000D01*
%TA.AperFunction,Conductor*%
D17*
G36*
X140310001Y-108560000D02*
G01*
X95910000Y-108560000D01*
X95910000Y-97227122D01*
X97405000Y-97227122D01*
X97405000Y-98352878D01*
X97624625Y-99457004D01*
X98055433Y-100497067D01*
X98680870Y-101433100D01*
X99476900Y-102229130D01*
X100412933Y-102854567D01*
X101452996Y-103285375D01*
X102557122Y-103505000D01*
X103682878Y-103505000D01*
X104787004Y-103285375D01*
X105827067Y-102854567D01*
X106763100Y-102229130D01*
X107559130Y-101433100D01*
X108184567Y-100497067D01*
X108615375Y-99457004D01*
X108835000Y-98352878D01*
X108835000Y-97227122D01*
X112395000Y-97227122D01*
X112395000Y-98352878D01*
X112614625Y-99457004D01*
X113045433Y-100497067D01*
X113670870Y-101433100D01*
X114466900Y-102229130D01*
X115402933Y-102854567D01*
X116442996Y-103285375D01*
X117547122Y-103505000D01*
X118672878Y-103505000D01*
X119777004Y-103285375D01*
X120817067Y-102854567D01*
X121753100Y-102229130D01*
X122155034Y-101827196D01*
X129232409Y-101827196D01*
X129818124Y-102509416D01*
X130801704Y-103057045D01*
X131873223Y-103402265D01*
X132991501Y-103531808D01*
X134113565Y-103440697D01*
X135196294Y-103132433D01*
X136198079Y-102618863D01*
X136361876Y-102509416D01*
X136947591Y-101827196D01*
X133090000Y-97969605D01*
X129232409Y-101827196D01*
X122155034Y-101827196D01*
X122549130Y-101433100D01*
X123174567Y-100497067D01*
X123605375Y-99457004D01*
X123825000Y-98352878D01*
X123825000Y-97691501D01*
X127348192Y-97691501D01*
X127439303Y-98813565D01*
X127747567Y-99896294D01*
X128261137Y-100898079D01*
X128370584Y-101061876D01*
X129052804Y-101647591D01*
X132910395Y-97790000D01*
X133269605Y-97790000D01*
X137127196Y-101647591D01*
X137809416Y-101061876D01*
X138357045Y-100078296D01*
X138702265Y-99006777D01*
X138831808Y-97888499D01*
X138740697Y-96766435D01*
X138432433Y-95683706D01*
X137918863Y-94681921D01*
X137809416Y-94518124D01*
X137127196Y-93932409D01*
X133269605Y-97790000D01*
X132910395Y-97790000D01*
X129052804Y-93932409D01*
X128370584Y-94518124D01*
X127822955Y-95501704D01*
X127477735Y-96573223D01*
X127348192Y-97691501D01*
X123825000Y-97691501D01*
X123825000Y-97227122D01*
X123605375Y-96122996D01*
X123174567Y-95082933D01*
X122549130Y-94146900D01*
X122155034Y-93752804D01*
X129232409Y-93752804D01*
X133090000Y-97610395D01*
X136947591Y-93752804D01*
X136361876Y-93070584D01*
X135378296Y-92522955D01*
X134306777Y-92177735D01*
X133188499Y-92048192D01*
X132066435Y-92139303D01*
X130983706Y-92447567D01*
X129981921Y-92961137D01*
X129818124Y-93070584D01*
X129232409Y-93752804D01*
X122155034Y-93752804D01*
X121753100Y-93350870D01*
X120817067Y-92725433D01*
X119777004Y-92294625D01*
X118672878Y-92075000D01*
X117547122Y-92075000D01*
X116442996Y-92294625D01*
X115402933Y-92725433D01*
X114466900Y-93350870D01*
X113670870Y-94146900D01*
X113045433Y-95082933D01*
X112614625Y-96122996D01*
X112395000Y-97227122D01*
X108835000Y-97227122D01*
X108615375Y-96122996D01*
X108184567Y-95082933D01*
X107559130Y-94146900D01*
X106763100Y-93350870D01*
X105827067Y-92725433D01*
X104787004Y-92294625D01*
X103682878Y-92075000D01*
X102557122Y-92075000D01*
X101452996Y-92294625D01*
X100412933Y-92725433D01*
X99476900Y-93350870D01*
X98680870Y-94146900D01*
X98055433Y-95082933D01*
X97624625Y-96122996D01*
X97405000Y-97227122D01*
X95910000Y-97227122D01*
X95910000Y-82408665D01*
X102705000Y-82408665D01*
X102705000Y-82691335D01*
X102760147Y-82968574D01*
X102868320Y-83229727D01*
X103025363Y-83464759D01*
X103225241Y-83664637D01*
X103457759Y-83820000D01*
X103225241Y-83975363D01*
X103025363Y-84175241D01*
X102868320Y-84410273D01*
X102760147Y-84671426D01*
X102705000Y-84948665D01*
X102705000Y-85231335D01*
X102760147Y-85508574D01*
X102868320Y-85769727D01*
X103025363Y-86004759D01*
X103225241Y-86204637D01*
X103460273Y-86361680D01*
X103721426Y-86469853D01*
X103998665Y-86525000D01*
X104281335Y-86525000D01*
X104558574Y-86469853D01*
X104819727Y-86361680D01*
X105054759Y-86204637D01*
X105254637Y-86004759D01*
X105411680Y-85769727D01*
X105519853Y-85508574D01*
X105575000Y-85231335D01*
X105575000Y-84948665D01*
X105519853Y-84671426D01*
X105411680Y-84410273D01*
X105254637Y-84175241D01*
X105054759Y-83975363D01*
X104822241Y-83820000D01*
X105054759Y-83664637D01*
X105254637Y-83464759D01*
X105411680Y-83229727D01*
X105519853Y-82968574D01*
X105575000Y-82691335D01*
X105575000Y-82408665D01*
X105519853Y-82131426D01*
X105411680Y-81870273D01*
X105254637Y-81635241D01*
X105054759Y-81435363D01*
X104819727Y-81278320D01*
X104558574Y-81170147D01*
X104281335Y-81115000D01*
X103998665Y-81115000D01*
X103721426Y-81170147D01*
X103460273Y-81278320D01*
X103225241Y-81435363D01*
X103025363Y-81635241D01*
X102868320Y-81870273D01*
X102760147Y-82131426D01*
X102705000Y-82408665D01*
X95910000Y-82408665D01*
X95910000Y-76670000D01*
X112861928Y-76670000D01*
X112861928Y-78270000D01*
X112874188Y-78394482D01*
X112910498Y-78514180D01*
X112969463Y-78624494D01*
X113048815Y-78721185D01*
X113145506Y-78800537D01*
X113255820Y-78859502D01*
X113375518Y-78895812D01*
X113500000Y-78908072D01*
X115100000Y-78908072D01*
X115224482Y-78895812D01*
X115344180Y-78859502D01*
X115454494Y-78800537D01*
X115551185Y-78721185D01*
X115630537Y-78624494D01*
X115689502Y-78514180D01*
X115725812Y-78394482D01*
X115726643Y-78386039D01*
X115925241Y-78584637D01*
X116160273Y-78741680D01*
X116421426Y-78849853D01*
X116698665Y-78905000D01*
X116981335Y-78905000D01*
X117258574Y-78849853D01*
X117519727Y-78741680D01*
X117754759Y-78584637D01*
X117954637Y-78384759D01*
X118110000Y-78152241D01*
X118265363Y-78384759D01*
X118465241Y-78584637D01*
X118700273Y-78741680D01*
X118961426Y-78849853D01*
X119238665Y-78905000D01*
X119521335Y-78905000D01*
X119798574Y-78849853D01*
X120059727Y-78741680D01*
X120294759Y-78584637D01*
X120494637Y-78384759D01*
X120650000Y-78152241D01*
X120805363Y-78384759D01*
X121005241Y-78584637D01*
X121240273Y-78741680D01*
X121501426Y-78849853D01*
X121778665Y-78905000D01*
X122061335Y-78905000D01*
X122338574Y-78849853D01*
X122599727Y-78741680D01*
X122834759Y-78584637D01*
X123034637Y-78384759D01*
X123191680Y-78149727D01*
X123299853Y-77888574D01*
X123355000Y-77611335D01*
X123355000Y-77328665D01*
X123299853Y-77051426D01*
X123191680Y-76790273D01*
X123034637Y-76555241D01*
X122834759Y-76355363D01*
X122599727Y-76198320D01*
X122338574Y-76090147D01*
X122061335Y-76035000D01*
X121778665Y-76035000D01*
X121501426Y-76090147D01*
X121240273Y-76198320D01*
X121005241Y-76355363D01*
X120805363Y-76555241D01*
X120650000Y-76787759D01*
X120494637Y-76555241D01*
X120294759Y-76355363D01*
X120059727Y-76198320D01*
X119798574Y-76090147D01*
X119521335Y-76035000D01*
X119238665Y-76035000D01*
X118961426Y-76090147D01*
X118700273Y-76198320D01*
X118465241Y-76355363D01*
X118265363Y-76555241D01*
X118110000Y-76787759D01*
X117954637Y-76555241D01*
X117754759Y-76355363D01*
X117519727Y-76198320D01*
X117258574Y-76090147D01*
X116981335Y-76035000D01*
X116698665Y-76035000D01*
X116421426Y-76090147D01*
X116160273Y-76198320D01*
X115925241Y-76355363D01*
X115726643Y-76553961D01*
X115725812Y-76545518D01*
X115689502Y-76425820D01*
X115630537Y-76315506D01*
X115551185Y-76218815D01*
X115454494Y-76139463D01*
X115344180Y-76080498D01*
X115224482Y-76044188D01*
X115100000Y-76031928D01*
X113500000Y-76031928D01*
X113375518Y-76044188D01*
X113255820Y-76080498D01*
X113145506Y-76139463D01*
X113048815Y-76218815D01*
X112969463Y-76315506D01*
X112910498Y-76425820D01*
X112874188Y-76545518D01*
X112861928Y-76670000D01*
X95910000Y-76670000D01*
X95910000Y-71490000D01*
X100061928Y-71490000D01*
X100061928Y-73290000D01*
X100074188Y-73414482D01*
X100110498Y-73534180D01*
X100169463Y-73644494D01*
X100248815Y-73741185D01*
X100345506Y-73820537D01*
X100455820Y-73879502D01*
X100575518Y-73915812D01*
X100700000Y-73928072D01*
X102500000Y-73928072D01*
X102624482Y-73915812D01*
X102744180Y-73879502D01*
X102854494Y-73820537D01*
X102951185Y-73741185D01*
X103030537Y-73644494D01*
X103089502Y-73534180D01*
X103095056Y-73515873D01*
X103161495Y-73582312D01*
X103412905Y-73750299D01*
X103692257Y-73866011D01*
X103988816Y-73925000D01*
X104291184Y-73925000D01*
X104587743Y-73866011D01*
X104867095Y-73750299D01*
X105118505Y-73582312D01*
X105332312Y-73368505D01*
X105500299Y-73117095D01*
X105616011Y-72837743D01*
X105675000Y-72541184D01*
X105675000Y-72238816D01*
X105616011Y-71942257D01*
X105500299Y-71662905D01*
X105332312Y-71411495D01*
X105118505Y-71197688D01*
X104867095Y-71029701D01*
X104587743Y-70913989D01*
X104291184Y-70855000D01*
X103988816Y-70855000D01*
X103692257Y-70913989D01*
X103412905Y-71029701D01*
X103161495Y-71197688D01*
X103095056Y-71264127D01*
X103089502Y-71245820D01*
X103030537Y-71135506D01*
X102951185Y-71038815D01*
X102854494Y-70959463D01*
X102744180Y-70900498D01*
X102624482Y-70864188D01*
X102500000Y-70851928D01*
X100700000Y-70851928D01*
X100575518Y-70864188D01*
X100455820Y-70900498D01*
X100345506Y-70959463D01*
X100248815Y-71038815D01*
X100169463Y-71135506D01*
X100110498Y-71245820D01*
X100074188Y-71365518D01*
X100061928Y-71490000D01*
X95910000Y-71490000D01*
X95910000Y-70199040D01*
X112908091Y-70199040D01*
X113002930Y-70463881D01*
X113147615Y-70705131D01*
X113336586Y-70913519D01*
X113562580Y-71081037D01*
X113816913Y-71201246D01*
X113950961Y-71241904D01*
X114173000Y-71119915D01*
X114173000Y-69977000D01*
X113029376Y-69977000D01*
X112908091Y-70199040D01*
X95910000Y-70199040D01*
X95910000Y-69500960D01*
X112908091Y-69500960D01*
X113029376Y-69723000D01*
X114173000Y-69723000D01*
X114173000Y-68580085D01*
X114427000Y-68580085D01*
X114427000Y-69723000D01*
X114447000Y-69723000D01*
X114447000Y-69977000D01*
X114427000Y-69977000D01*
X114427000Y-71119915D01*
X114649039Y-71241904D01*
X114783087Y-71201246D01*
X115037420Y-71081037D01*
X115263414Y-70913519D01*
X115452385Y-70705131D01*
X115563933Y-70519135D01*
X115568320Y-70529727D01*
X115725363Y-70764759D01*
X115925241Y-70964637D01*
X116160273Y-71121680D01*
X116421426Y-71229853D01*
X116698665Y-71285000D01*
X116981335Y-71285000D01*
X117258574Y-71229853D01*
X117519727Y-71121680D01*
X117754759Y-70964637D01*
X117954637Y-70764759D01*
X118110000Y-70532241D01*
X118265363Y-70764759D01*
X118465241Y-70964637D01*
X118700273Y-71121680D01*
X118961426Y-71229853D01*
X119238665Y-71285000D01*
X119521335Y-71285000D01*
X119798574Y-71229853D01*
X120059727Y-71121680D01*
X120294759Y-70964637D01*
X120494637Y-70764759D01*
X120650000Y-70532241D01*
X120805363Y-70764759D01*
X121005241Y-70964637D01*
X121240273Y-71121680D01*
X121501426Y-71229853D01*
X121778665Y-71285000D01*
X122061335Y-71285000D01*
X122338574Y-71229853D01*
X122599727Y-71121680D01*
X122834759Y-70964637D01*
X123034637Y-70764759D01*
X123191680Y-70529727D01*
X123299853Y-70268574D01*
X123355000Y-69991335D01*
X123355000Y-69708665D01*
X133185000Y-69708665D01*
X133185000Y-69991335D01*
X133240147Y-70268574D01*
X133348320Y-70529727D01*
X133505363Y-70764759D01*
X133705241Y-70964637D01*
X133937759Y-71120000D01*
X133705241Y-71275363D01*
X133505363Y-71475241D01*
X133348320Y-71710273D01*
X133240147Y-71971426D01*
X133185000Y-72248665D01*
X133185000Y-72531335D01*
X133240147Y-72808574D01*
X133348320Y-73069727D01*
X133505363Y-73304759D01*
X133705241Y-73504637D01*
X133940273Y-73661680D01*
X134201426Y-73769853D01*
X134478665Y-73825000D01*
X134761335Y-73825000D01*
X135038574Y-73769853D01*
X135299727Y-73661680D01*
X135534759Y-73504637D01*
X135734637Y-73304759D01*
X135891680Y-73069727D01*
X135999853Y-72808574D01*
X136055000Y-72531335D01*
X136055000Y-72248665D01*
X135999853Y-71971426D01*
X135891680Y-71710273D01*
X135734637Y-71475241D01*
X135534759Y-71275363D01*
X135302241Y-71120000D01*
X135534759Y-70964637D01*
X135734637Y-70764759D01*
X135891680Y-70529727D01*
X135999853Y-70268574D01*
X136055000Y-69991335D01*
X136055000Y-69708665D01*
X135999853Y-69431426D01*
X135891680Y-69170273D01*
X135734637Y-68935241D01*
X135534759Y-68735363D01*
X135299727Y-68578320D01*
X135038574Y-68470147D01*
X134761335Y-68415000D01*
X134478665Y-68415000D01*
X134201426Y-68470147D01*
X133940273Y-68578320D01*
X133705241Y-68735363D01*
X133505363Y-68935241D01*
X133348320Y-69170273D01*
X133240147Y-69431426D01*
X133185000Y-69708665D01*
X123355000Y-69708665D01*
X123299853Y-69431426D01*
X123191680Y-69170273D01*
X123034637Y-68935241D01*
X122834759Y-68735363D01*
X122599727Y-68578320D01*
X122338574Y-68470147D01*
X122061335Y-68415000D01*
X121778665Y-68415000D01*
X121501426Y-68470147D01*
X121240273Y-68578320D01*
X121005241Y-68735363D01*
X120805363Y-68935241D01*
X120650000Y-69167759D01*
X120494637Y-68935241D01*
X120294759Y-68735363D01*
X120059727Y-68578320D01*
X119798574Y-68470147D01*
X119521335Y-68415000D01*
X119238665Y-68415000D01*
X118961426Y-68470147D01*
X118700273Y-68578320D01*
X118465241Y-68735363D01*
X118265363Y-68935241D01*
X118110000Y-69167759D01*
X117954637Y-68935241D01*
X117754759Y-68735363D01*
X117519727Y-68578320D01*
X117258574Y-68470147D01*
X116981335Y-68415000D01*
X116698665Y-68415000D01*
X116421426Y-68470147D01*
X116160273Y-68578320D01*
X115925241Y-68735363D01*
X115725363Y-68935241D01*
X115568320Y-69170273D01*
X115563933Y-69180865D01*
X115452385Y-68994869D01*
X115263414Y-68786481D01*
X115037420Y-68618963D01*
X114783087Y-68498754D01*
X114649039Y-68458096D01*
X114427000Y-68580085D01*
X114173000Y-68580085D01*
X113950961Y-68458096D01*
X113816913Y-68498754D01*
X113562580Y-68618963D01*
X113336586Y-68786481D01*
X113147615Y-68994869D01*
X113002930Y-69236119D01*
X112908091Y-69500960D01*
X95910000Y-69500960D01*
X95910000Y-64160000D01*
X140310000Y-64160000D01*
X140310001Y-108560000D01*
G37*
%TD.AperFunction*%
%TD*%
M02*
